# xmcd
#
# Track frame offsets:
#  150
#  16158
#  28425
#  43154
#  60677
#  80026
#  96671
#  108103
#  124070
#  139520
#  156056
#  169376
#  186227
#  204318
#  220101
#  234744
#  251681
#  266410
#  283933
#  303282
#  319927
#  331359
#
# Disc length: 4629 seconds
#
# Revision: 0
# Processed by: cddbd v1.5.2PL0 Copyright (c) Steve Scherf et al.
# Submitted via: Collectorz.com_Music_Collector 6.11
#
DISCID=49121316
DTITLE=The Judds - Greatest Hits
DYEAR=1900
DGENRE=Country-Pop
TTITLE0=Why Not Me
TTITLE1=Rockin' With The Rhythm Of The
TTITLE2=Mama He's Crazy
TTITLE3=Give A Little Love
TTITLE4=Grandpa (Tell Me 'Bout The Goo
TTITLE5=I Know Where I'm Going
TTITLE6=Don't Be Cruel
TTITLE7=John Deere Tractor
TTITLE8=Have Mercy
TTITLE9=Change Of Heart
TTITLE10=Girls Night Out
TTITLE11=Cry Myself To Sleep
TTITLE12=Love Is Alive
TTITLE13=Maybe Your Baby's Got The Blue
TTITLE14=Had A Dream (For The Heart)
TTITLE15=Turn It Loose
TTITLE16=Mama He's Crazy
TTITLE17=Give A Little Love
TTITLE18=Grandpa (Tell Me 'Bout The Goo
TTITLE19=I Know Where I'm Going
TTITLE20=Don't Be Cruel
TTITLE21=John Deere Tractor
EXTD=
EXTT0=
EXTT1=
EXTT2=
EXTT3=
EXTT4=
EXTT5=
EXTT6=
EXTT7=
EXTT8=
EXTT9=
EXTT10=
EXTT11=
EXTT12=
EXTT13=
EXTT14=
EXTT15=
EXTT16=
EXTT17=
EXTT18=
EXTT19=
EXTT20=
EXTT21=
PLAYORDER=
